<svg xmlns="http://www.w3.org/2000/svg" version="1.1" xmlns:xlink="http://www.w3.org/1999/xlink" xmlns:svgjs="http://svgjs.dev/svgjs" width="1000" height="1000" viewBox="0 0 1000 1000"><rect width="1000" height="1000" fill="#ffffff"></rect><g transform="matrix(0.7,0,0,0.7,149.57575757575756,282.1265587044535)"><svg viewBox="0 0 396 247" data-background-color="#636365" preserveAspectRatio="xMidYMid meet" height="623" width="1000" xmlns="http://www.w3.org/2000/svg" xmlns:xlink="http://www.w3.org/1999/xlink"><g id="tight-bounds" transform="matrix(1,0,0,1,0.2400000000000091,-0.09999999999999432)"><svg viewBox="0 0 395.52 247.2" height="247.2" width="395.52"><g><svg></svg></g><g><svg viewBox="0 0 395.52 247.2" height="247.2" width="395.52"><g transform="matrix(1,0,0,1,39.55199999999999,107.6961352285824)"><svg viewBox="0 0 316.416 31.807729542835187" height="31.807729542835187" width="316.416"><g><svg viewBox="0 0 316.416 31.807729542835187" height="31.807729542835187" width="316.416"><g><svg viewBox="0 0 316.416 31.807729542835187" height="31.807729542835187" width="316.416"><g><svg viewBox="0 0 316.416 31.807729542835187" height="31.807729542835187" width="316.416"><g><svg viewBox="0 0 316.416 31.807729542835187" height="31.807729542835187" width="316.416"><g><svg viewBox="0 0 316.416 31.807729542835187" height="31.807729542835187" width="316.416"><g transform="matrix(1,0,0,1,0,0)"><svg width="316.416" viewBox="5.760000228881836 -37.84000015258789 381.2699890136719 38.33000183105469" height="31.807729542835187" data-palette-color="#ffffff"><path d="M5.76 0L5.76-37.35 9.91-37.35 9.91-20.48 27.56-20.48 27.56-37.35 31.69-37.35 31.69 0 27.56 0 27.56-16.94 9.91-16.94 9.91 0 5.76 0ZM57 0.49L55.49 0.49Q46.8 0.49 44.02-4.98L44.02-4.98Q42.38-8.15 42.09-13.45L42.09-13.45Q41.97-15.94 41.97-18.87 41.97-21.8 42.14-24.43 42.31-27.05 42.81-29.17 43.31-31.3 44.22-32.92 45.14-34.55 46.63-35.64L46.63-35.64Q49.7-37.84 55.49-37.84L55.49-37.84 57-37.84Q66.06-37.84 68.6-32.96L68.6-32.96Q70.19-29.91 70.38-24.46L70.38-24.46Q70.48-21.8 70.48-18.84 70.48-15.87 70.33-13.37 70.19-10.86 69.72-8.74 69.26-6.62 68.37-4.91 67.48-3.2 65.96-2L65.96-2Q62.84 0.49 57 0.49L57 0.49ZM55.49-3.03L56.96-3.03Q59.64-3.03 61.41-3.61 63.18-4.2 64.21-5.66L64.21-5.66Q66.11-8.37 66.11-16.06L66.11-16.06 66.11-18.7Q66.11-22.39 65.92-25.27 65.72-28.15 64.87-30.13L64.87-30.13Q63.11-34.23 57.25-34.23L57.25-34.23 55.2-34.23Q49.24-34.23 47.58-30.4L47.58-30.4Q46.53-27.95 46.43-24.63 46.34-21.31 46.34-18.7L46.34-18.7 46.34-16.06Q46.34-8.86 48.48-5.91L48.48-5.91Q50.56-3.03 55.49-3.03L55.49-3.03ZM80.12-17.21L80.12-37.35 84.22-37.35 84.22-17.38Q84.22-11.47 84.74-9.33 85.25-7.18 85.92-6.09 86.59-5 87.67-4.35L87.67-4.35Q89.69-3.1 93.24-3.1 96.8-3.1 98.59-3.71 100.39-4.32 101.37-5.91 102.36-7.5 102.7-10.28 103.05-13.06 103.05-17.38L103.05-17.38 103.05-37.35 107.15-37.35 107.15-17.53Q107.15-11.25 106.68-8.87 106.22-6.49 105.4-4.83 104.58-3.17 103.1-2L103.1-2Q99.97 0.49 93.77 0.49L93.77 0.49Q84.54 0.49 81.86-4.79L81.86-4.79Q80.37-7.74 80.2-12.6L80.2-12.6Q80.12-14.82 80.12-17.21L80.12-17.21ZM114.42-2.47L116.03-5.88Q121.57-2.95 126.87-2.95L126.87-2.95Q133.02-2.95 134.07-6.88L134.07-6.88Q134.42-8.18 134.42-9.86L134.42-9.86 134.42-10.82Q134.42-12.52 134.17-13.57 133.93-14.62 133.15-15.28L133.15-15.28Q131.88-16.38 127.14-17.11L127.14-17.11Q122.92-17.77 121.31-18.36 119.69-18.95 118.66-19.64 117.62-20.34 116.89-21.39L116.89-21.39Q115.37-23.58 115.37-27.47L115.37-27.47 115.37-27.71Q115.37-35.77 122.06-37.35L122.06-37.35Q124.19-37.84 126.87-37.84L126.87-37.84 127.19-37.84Q133.46-37.84 137.44-36.04L137.44-36.04 136.17-32.3Q131.36-34.38 127.31-34.38L127.31-34.38 127.09-34.38Q122.62-34.38 120.94-32.69L120.94-32.69Q119.52-31.27 119.52-27.78L119.52-27.78 119.52-27.69Q119.52-23.71 121.72-22.46L121.72-22.46Q123.21-21.66 127.06-21.04 130.9-20.43 132.78-20.01 134.66-19.58 135.98-18.6L135.98-18.6Q138.71-16.55 138.71-10.82L138.71-10.82 138.71-10.5Q138.71-1.73 131.66-0.05L131.66-0.05Q129.48 0.49 127.56 0.49 125.63 0.49 124.05 0.35 122.48 0.22 120.84-0.12L120.84-0.12Q117.01-0.9 114.42-2.47L114.42-2.47ZM147.26 0L147.26-37.35 168.42-37.35 168.42-33.74 151.41-33.74 151.41-20.85 165.13-20.85 165.13-17.26 151.41-17.26 151.41-3.59 169.08-3.59 169.08 0 147.26 0ZM186.22 0L191.98-37.35 198.35-37.35 206.85-9.77 208.29-3.81 209.68-9.79 217.88-37.35 223.96-37.35 229.99 0 225.84 0 221.3-28.22 220.61-34.81 219.13-28.17 210.7-0.02 205.89-0.02 197.1-28.32 195.37-34.81 194.54-28.27 190.41 0 186.22 0ZM234.41 0L246.64-37.35 252.33-37.35 265.39 0 260.97 0 257.26-10.96 242.22-10.96 238.7 0 234.41 0ZM243.34-14.45L256.09-14.45 249.49-34.06 248.74-31.27 243.34-14.45ZM272.27 0L272.27-37.23Q280.2-37.84 285.6-37.84L285.6-37.84 286.09-37.84Q291.97-37.84 294.34-35.21L294.34-35.21Q296.32-32.93 296.32-27.78L296.32-27.78Q296.32-21.19 294.44-17.97L294.44-17.97Q292.51-14.7 288.04-13.87L288.04-13.87Q288.87-12.84 289.68-11.72L289.68-11.72 291.12-9.64 297.54 0 292.66 0 287.04-8.84Q284.7-12.4 283.57-13.55L283.57-13.55 283.31-13.55Q281.57-13.57 279.96-13.62L279.96-13.62 276.42-13.77 276.42 0 272.27 0ZM276.42-34.13L276.42-17.07Q278.98-16.94 284.48-16.94L284.48-16.94Q288.99-16.94 290.63-19.48L290.63-19.48Q292.02-21.7 292.02-27.25L292.02-27.25Q292.02-31.91 289.95-33.35L289.95-33.35Q288.73-34.2 287.27-34.3 285.82-34.4 284.73-34.4 283.65-34.4 282.63-34.39 281.62-34.38 280.62-34.35 279.62-34.33 278.59-34.28L278.59-34.28 276.42-34.13ZM310.92-16.8L310.92-16.8 309.77-16.77 309.77 0 305.62 0 305.62-37.35 309.77-37.35 309.77-19.82Q311.13-19.82 311.55-20.03 311.96-20.24 312.53-20.64 313.09-21.04 314.19-22.3 315.29-23.56 316.53-25.17L316.53-25.17Q319.83-29.64 321.22-31.71L321.22-31.71 323.49-35.18Q324.37-36.57 324.81-37.38L324.81-37.38 329.64-37.38Q329.42-36.89 328.79-35.89L328.79-35.89Q326.66-32.62 325.39-30.86L325.39-30.86 320.71-24.54 318.58-21.92Q316.41-19.34 315.7-19.07L315.7-19.07 315.7-18.85 316.46-18.55Q318.14-17.92 320.78-14.43L320.78-14.43 331.52 0 326.22 0 318.39-11.08Q314.46-16.6 311.72-16.77L311.72-16.77Q311.33-16.8 310.92-16.8ZM338.92 0L338.92-37.35 360.08-37.35 360.08-33.74 343.07-33.74 343.07-20.85 356.79-20.85 356.79-17.26 343.07-17.26 343.07-3.59 360.74-3.59 360.74 0 338.92 0ZM372.58 0L372.58-33.74 362.62-33.74 362.62-37.35 387.03-37.35 387.03-33.74 376.73-33.74 376.73 0 372.58 0Z" opacity="1" transform="matrix(1,0,0,1,0,0)" fill="#000000" class="undefined-text-0" data-fill-palette-color="primary" id="text-0"></path></svg></g></svg></g></svg></g></svg></g><g></g></svg></g></svg></g></svg></g><g mask="url(#3e13af2e-86f9-4a42-a961-9ccb7240d9ed)"><g transform="matrix(3.954838709677419, 0, 0, 3.954838709677419, 74.66564516129031, 1)"><svg xmlns="http://www.w3.org/2000/svg" xmlns:xlink="http://www.w3.org/1999/xlink" version="1.1" x="0" y="0" viewBox="1 1 62.25 62" style="enable-background:new 0 0 64 64;" xml:space="preserve" height="62" width="62.25" class="icon-none" data-fill-palette-color="accent" id="none"><g fill="#ffffff" data-fill-palette-color="accent"><path d="M7 57h12V47H7V57zM9 49h8v6H9V49z" fill="#000000" data-fill-palette-color="accent"></path><path d="M23 47v10h12V47H23zM33 55h-8v-6h8V55z" fill="#000000" data-fill-palette-color="accent"></path><path d="M15 22V12c0-1.654-1.346-3-3-3h-2c-1.654 0-3 1.346-3 3v10c0 1.654 1.346 3 3 3h2C13.654 25 15 23.654 15 22zM9 22V12c0-0.552 0.448-1 1-1h2c0.552 0 1 0.448 1 1v10c0 0.552-0.448 1-1 1h-2C9.448 23 9 22.552 9 22z" fill="#000000" data-fill-palette-color="accent"></path><path d="M50.901 25.68c-1.066-0.877-2.737-0.874-3.8-0.003L45.484 27H28.915C28.963 26.67 29 26.337 29 26v-4h12.535l1.965-2.947L45.465 22h2.07l1.965-2.947L51.465 22h2.07l1.965-2.947L57.465 22H59.5l3.75-5-3.75-5H29V8c0-3.859-3.141-7-7-7H8C4.141 1 1 4.141 1 8v18c0 2.758 1.621 5.173 4.016 6.306L1 35.52V43h2v20h58V39.81c0.509-0.181 0.97-0.481 1.321-0.91 1.048-1.279 0.858-3.174-0.423-4.224L50.901 25.68zM48.369 27.224c0.351-0.289 0.906-0.29 1.265 0.003l10.998 8.998c0.428 0.351 0.491 0.982 0.142 1.409-0.336 0.408-0.993 0.478-1.405 0.141L49 29.292l-10.364 8.48c-0.419 0.339-1.075 0.271-1.411-0.141-0.349-0.426-0.284-1.057 0.142-1.405L48.369 27.224zM36.1 34.679c-1.28 1.049-1.469 2.941-0.423 4.219 0.347 0.427 0.814 0.721 1.323 0.893V41H3v-4h30v-2H4.851l7.5-6H43.04L36.1 34.679zM39 20H29v-2h9c0.552 0 1 0.448 1 1V20zM58.5 14l2.25 3-2.231 2.976L56.535 17h-2.07L52.5 19.947 50.535 17h-2.07L46.5 19.947 44.535 17h-2.07L41 19.197V19c0-1.654-1.346-3-3-3h-9v-2H58.5zM3 26V8c0-2.757 2.243-5 5-5h14c2.757 0 5 2.243 5 5v18c0 0.34-0.044 0.672-0.111 1h-15.24l-4.81 3.848C4.603 30.315 3 28.324 3 26zM5 43h32v18H5V43zM55 61h-2V49h-8v12h-2V51c0-3.309 2.691-6 6-6s6 2.691 6 6V61zM51 61h-4V51h4V61zM57 61V51c0-4.411-3.589-8-8-8s-8 3.589-8 8v10h-2V39.8c0.321-0.107 0.628-0.258 0.898-0.477L49 31.876l9.103 7.447c0.269 0.22 0.574 0.389 0.897 0.504V61H57z" fill="#000000" data-fill-palette-color="accent"></path></g></svg></g></g></svg></g><defs><mask id="49cbd7e7-28e3-478f-878f-35c3d32e0a92"><rect width="640" height="400" fill="white"></rect><rect width="348.05760000000004" height="46.82581266194391" fill="black" x="145.97119999999998" y="176.58709366902804" id="transform-me" transform="matrix(1,0,0,1,-122.24000000000001,-76.4)"></rect></mask><mask id="3e13af2e-86f9-4a42-a961-9ccb7240d9ed"><rect width="640" height="400" fill="white"></rect><rect width="348.05760000000004" height="46.82581266194391" fill="black" x="145.97119999999998" y="176.58709366902804" id="transform-me" transform="matrix(1,0,0,1,-122.24000000000001,-76.4)"></rect></mask></defs></svg><rect width="395.52" height="247.2" fill="none" stroke="none" visibility="hidden"></rect></g></svg></g></svg>