<?xml version="1.0" standalone="no"?>
<!DOCTYPE svg PUBLIC "-//W3C//DTD SVG 20010904//EN"
 "http://www.w3.org/TR/2001/REC-SVG-20010904/DTD/svg10.dtd">
<svg version="1.0" xmlns="http://www.w3.org/2000/svg"
 width="1000.000000pt" height="623.000000pt" viewBox="0 0 1000.000000 623.000000"
 preserveAspectRatio="xMidYMid meet">

<g transform="translate(0.000000,623.000000) scale(0.100000,-0.100000)"
fill="#000000" stroke="none">
<path d="M2495 6200 c-277 -42 -499 -239 -574 -510 -21 -73 -21 -95 -21 -1027
l0 -953 95 0 94 0 3 943 c3 941 3 942 25 1007 51 148 166 265 320 323 58 22
62 22 813 25 533 2 775 -1 823 -9 146 -24 292 -129 356 -257 62 -123 61 -97
61 -1109 l0 -923 100 0 100 0 0 200 0 200 624 0 623 0 93 140 c52 78 97 143
101 146 5 3 52 -61 105 -141 l97 -145 102 0 102 0 97 146 c54 81 101 142 106
138 4 -5 49 -71 99 -146 l91 -138 103 0 102 0 95 145 c52 80 98 145 101 145 3
0 49 -65 102 -145 l97 -145 100 0 100 0 182 243 c100 133 182 249 182 257 0 8
-82 124 -182 258 l-182 242 -1520 0 -1520 0 0 224 c0 303 -21 407 -111 546
-114 176 -292 292 -494 320 -82 11 -1514 11 -1590 0z m5248 -1436 c60 -81 106
-152 103 -159 -10 -27 -208 -285 -215 -280 -4 2 -49 67 -101 145 l-93 140
-106 0 -106 0 -97 -147 -96 -146 -98 147 -97 146 -103 0 -104 0 -91 -137 c-50
-76 -95 -141 -99 -146 -3 -4 -50 58 -103 138 l-97 145 -105 0 -105 0 -66 -100
c-37 -55 -71 -97 -75 -94 -5 3 -9 20 -9 37 0 47 -43 130 -90 176 -23 22 -66
49 -96 61 -52 19 -76 20 -529 20 l-475 0 0 100 0 100 1473 0 1472 -1 108 -145z
m-2092 -282 c30 -27 32 -33 33 -98 l1 -69 -497 -3 -498 -2 0 100 0 100 465 0
465 0 31 -28z"/>
<path d="M2696 5393 c-65 -22 -147 -99 -177 -165 l-24 -53 0 -565 c0 -556 0
-566 21 -611 31 -67 87 -124 152 -156 55 -27 61 -28 222 -28 132 1 174 4 209
18 64 25 122 77 156 138 l30 54 0 585 0 585 -23 42 c-35 66 -79 110 -140 140
-54 27 -64 28 -217 30 -128 2 -170 -1 -209 -14z m344 -198 c16 -8 34 -24 40
-34 15 -29 14 -1062 -1 -1095 -20 -43 -65 -56 -191 -56 -135 0 -170 14 -188
77 -8 26 -10 197 -8 551 l3 514 33 29 c32 29 33 29 158 29 92 0 133 -4 154
-15z"/>
<path d="M6589 3797 c-44 -17 -102 -52 -119 -72 -11 -13 15 -15 216 -15 l229
1 -30 25 c-73 63 -214 92 -296 61z"/>
<path d="M1995 3514 c-134 -22 -189 -75 -214 -209 -17 -89 -14 -329 4 -400 36
-137 110 -188 275 -189 151 -1 222 34 269 133 26 55 26 60 26 271 0 184 -3
222 -18 262 -22 56 -72 103 -124 117 -45 13 -175 21 -218 15z m203 -100 c15
-11 36 -38 47 -60 18 -35 20 -59 20 -244 0 -188 -2 -208 -21 -245 -29 -57 -70
-75 -168 -75 -107 0 -156 23 -188 88 -20 42 -23 64 -26 208 -4 183 7 259 45
304 33 40 71 50 176 47 68 -3 93 -7 115 -23z"/>
<path d="M3473 3510 c-99 -15 -149 -64 -164 -162 -10 -60 4 -144 30 -178 30
-41 72 -59 196 -85 152 -31 165 -42 165 -136 0 -37 -4 -79 -10 -93 -26 -70
-157 -88 -296 -41 -41 14 -76 25 -78 25 -10 0 -28 -62 -20 -69 43 -38 224 -67
316 -51 119 21 169 78 176 202 6 89 -3 131 -35 169 -33 38 -52 46 -183 71 -57
11 -116 26 -131 33 -69 36 -62 196 11 232 38 19 159 16 229 -6 l60 -19 11 34
c6 18 9 38 6 43 -15 24 -198 44 -283 31z"/>
<path d="M6730 3514 c-52 -2 -105 -6 -117 -9 l-23 -5 0 -391 0 -390 43 3 42 3
3 143 3 142 74 0 74 0 96 -145 95 -145 45 0 c25 0 45 4 45 8 0 4 -42 71 -94
147 l-94 139 35 12 c92 32 128 108 128 269 0 92 -3 115 -20 143 -39 65 -121
83 -335 76z m220 -89 c39 -20 53 -69 48 -169 -8 -149 -41 -176 -213 -176
l-105 0 0 180 0 180 120 0 c87 0 129 -4 150 -15z"/>
<path d="M1010 3115 l0 -396 43 3 42 3 3 178 2 177 185 0 185 0 0 -180 0 -180
40 0 40 0 0 395 0 395 -40 0 -40 0 -2 -177 -3 -178 -182 -3 -183 -2 -2 177 -3
178 -42 3 -43 3 0 -396z"/>
<path d="M2572 3198 c3 -311 3 -313 28 -363 43 -85 115 -118 261 -118 70 0 95
4 140 25 115 53 129 105 129 485 l0 283 -40 0 -40 0 0 -222 c-1 -451 -17 -493
-195 -493 -113 0 -141 13 -175 80 -25 49 -25 54 -28 343 l-4 292 -40 0 -39 0
3 -312z"/>
<path d="M3970 3115 l0 -395 228 2 227 3 3 38 3 37 -185 0 -186 0 0 145 0 145
145 0 145 0 0 35 0 35 -145 0 -145 0 0 135 0 135 175 0 175 0 0 40 0 40 -220
0 -220 0 0 -395z"/>
<path d="M4905 3488 c-7 -37 -115 -739 -115 -754 0 -18 79 -20 85 -1 2 6 25
161 50 342 26 182 49 337 52 345 4 9 9 2 15 -20 10 -39 96 -321 164 -537 l45
-143 49 0 c38 0 50 4 54 18 3 9 39 132 82 272 42 140 86 296 99 345 l22 90 7
-65 c4 -36 29 -198 55 -360 l47 -295 42 -3 c28 -2 42 1 42 9 0 23 -121 763
-126 771 -3 4 -32 8 -64 8 -57 0 -59 -1 -69 -32 -39 -126 -171 -580 -176 -611
-11 -55 -20 -53 -34 9 -12 51 -54 192 -152 507 l-40 127 -64 0 c-59 0 -65 -2
-70 -22z"/>
<path d="M6050 3505 c0 -3 -56 -177 -125 -387 -69 -209 -125 -385 -125 -390 0
-5 19 -8 43 -6 l42 3 36 110 35 110 160 3 159 2 38 -115 38 -115 45 0 c24 0
44 4 44 8 0 7 -219 640 -256 740 l-16 42 -59 0 c-32 0 -59 -2 -59 -5z m136
-287 l63 -188 -130 0 c-87 0 -129 4 -129 11 0 26 124 392 128 379 3 -8 33 -99
68 -202z"/>
<path d="M7290 3115 l0 -395 40 0 40 0 2 178 3 177 34 -3 c54 -4 88 -38 204
-201 l108 -151 51 0 c40 0 49 3 44 15 -12 31 -246 334 -280 362 l-36 29 26 25
c51 47 254 326 254 348 0 6 -20 11 -44 11 l-45 0 -56 -87 c-122 -186 -206
-283 -246 -283 -18 0 -19 11 -19 185 l0 185 -40 0 -40 0 0 -395z"/>
<path d="M7985 3498 c-3 -7 -4 -184 -3 -393 l3 -380 228 -3 227 -2 0 40 0 40
-185 0 -185 0 0 145 0 145 145 0 145 0 0 35 0 35 -145 0 -145 0 0 135 0 135
181 0 180 0 -3 38 -3 37 -218 3 c-169 2 -219 0 -222 -10z"/>
<path d="M8480 3470 l0 -40 105 0 105 0 0 -355 0 -355 40 0 40 0 0 355 0 355
110 0 110 0 0 40 0 40 -255 0 -255 0 0 -40z"/>
<path d="M1900 2270 l0 -250 95 0 95 0 2 -997 3 -998 2893 -3 2892 -2 0 1159
0 1159 32 13 c46 19 106 75 129 122 11 21 19 41 16 43 -2 2 -144 3 -315 2
l-310 -3 88 -72 c49 -40 105 -81 124 -90 l36 -18 0 -1057 0 -1058 -100 0 -100
0 0 540 c0 452 -3 554 -16 618 -81 399 -460 679 -859 634 -323 -36 -573 -237
-682 -547 l-28 -80 -5 -580 -5 -580 -97 -3 -98 -3 0 1059 0 1058 33 16 c30 15
207 154 207 164 0 2 -142 4 -315 4 l-315 0 20 -39 c26 -51 79 -103 130 -126
l40 -18 0 -59 0 -58 -1700 0 -1700 0 0 150 0 150 -95 0 -95 0 0 -250z m3590
-1150 l0 -900 -1597 2 -1598 3 -3 885 c-1 487 0 891 3 898 3 9 333 12 1600 12
l1595 0 0 -900z m1315 685 c176 -37 335 -163 413 -325 22 -47 45 -109 51 -138
7 -34 11 -241 11 -587 l0 -535 -100 0 -100 0 0 600 0 600 -400 0 -400 0 0
-600 0 -601 -97 3 -98 3 -3 480 c-2 503 3 614 37 710 51 146 159 268 294 335
135 66 256 83 392 55z m75 -1085 l0 -500 -197 2 -198 3 -3 498 -2 497 200 0
200 0 0 -500z"/>
<path d="M2490 1120 l0 -500 600 0 600 0 0 500 0 500 -600 0 -600 0 0 -500z
m1000 0 l0 -300 -400 0 -400 0 0 300 0 300 400 0 400 0 0 -300z"/>
<path d="M4090 1120 l0 -500 600 0 600 0 0 500 0 500 -600 0 -600 0 0 -500z
m1000 0 l0 -300 -400 0 -400 0 0 300 0 300 400 0 400 0 0 -300z"/>
</g>
</svg>
